<?xml version="1.0" encoding="utf-8"?>
<!-- Generator: Adobe Illustrator 19.1.0, SVG Export Plug-In . SVG Version: 6.00 Build 0)  -->
<svg version="1.1" id="Layer_1" xmlns="http://www.w3.org/2000/svg" xmlns:xlink="http://www.w3.org/1999/xlink" x="0px" y="0px"
	 viewBox="-255 347 100 100" style="enable-background:new -255 347 100 100;" xml:space="preserve">
<style type="text/css">
	.st0{fill:none;}
	.st1{fill:#B02A35;}
	.st2{fill:#C5C5C5;}
</style>
<path class="st0" d="M-234.4,349.4c-0.4-0.2-0.4,0.2-0.7,0.1C-235.1,349.8-234.2,350.1-234.4,349.4z"/>
<path class="st0" d="M-235.3,349.9c0-0.1,0-0.3,0.1-0.4c-0.1,0.1-0.2,0.2-0.4,0.1C-235.6,350.1-235.5,350.1-235.3,349.9z"/>
<g>
	<polygon class="st1" points="-232.7,363.6 -227.7,372.7 -222.7,381.8 -232.7,381.8 -242.8,381.8 -237.7,372.7 	"/>
	<polygon class="st1" points="-204.5,363.6 -199.5,372.7 -194.5,381.8 -204.5,381.8 -214.6,381.8 -209.5,372.7 	"/>
	<polygon class="st1" points="-204.4,430.7 -193.4,385.4 -215.5,385.4 	"/>
	<polygon class="st1" points="-206.6,430.7 -220.2,385.4 -242.4,385.4 	"/>
	<polygon class="st1" points="-202,430.7 -188.3,385.4 -166.1,385.4 	"/>
	<polygon class="st1" points="-190.4,381.8 -195.5,372.7 -200.5,363.6 -190.4,363.6 -180.4,363.6 -185.4,372.7 	"/>
	<polygon class="st1" points="-218.6,381.8 -223.7,372.7 -228.7,363.6 -218.6,363.6 -208.6,363.6 -213.6,372.7 	"/>
	<polygon class="st2" points="-176.3,363.6 -171.3,372.7 -166.3,381.8 -176.3,381.8 -186.3,381.8 -181.3,372.7 	"/>
</g>
</svg>
